# MagicaVoxel @ Ephtracy

# group
g SandTimerOBJ

# material
mtllib SandTimerOBJ.mtl
usemtl palette

# normals
vn -1 0 0
vn 1 0 0
vn 0 0 1
vn 0 0 -1
vn 0 -1 0
vn 0 1 0

# texcoords
vt 0.958984 0.5
vt 0.994141 0.5

# verts
v -7 0 2
v -7 0 1
v -7 3 2
v -7 3 1
v -7 19 2
v -7 19 1
v -7 22 2
v -7 22 1
v -6 3 2
v -6 3 1
v -6 8 2
v -6 8 1
v -6 14 2
v -6 14 1
v -6 19 2
v -6 19 1
v -5 8 2
v -5 8 1
v -5 9 2
v -5 9 1
v -5 13 2
v -5 13 1
v -5 14 2
v -5 14 1
v -4 9 2
v -4 9 1
v -4 10 2
v -4 10 1
v -4 12 2
v -4 12 1
v -4 13 2
v -4 13 1
v -3 10 2
v -3 10 1
v -3 12 2
v -3 12 1
v 3 10 2
v 3 10 1
v 3 12 2
v 3 12 1
v 4 9 2
v 4 9 1
v 4 10 2
v 4 10 1
v 4 12 2
v 4 12 1
v 4 13 2
v 4 13 1
v 5 8 2
v 5 8 1
v 5 9 2
v 5 9 1
v 5 13 2
v 5 13 1
v 5 14 2
v 5 14 1
v 6 3 2
v 6 3 1
v 6 8 2
v 6 8 1
v 6 14 2
v 6 14 1
v 6 19 2
v 6 19 1
v 7 0 2
v 7 0 1
v 7 3 2
v 7 3 1
v 7 19 2
v 7 19 1
v 7 22 2
v 7 22 1
v -7 0 2
v -7 3 2
v -7 19 2
v -7 22 2
v -6 3 2
v -6 8 2
v -6 14 2
v -6 19 2
v -5 1 2
v -5 2 2
v -5 3 2
v -5 7 2
v -5 8 2
v -5 9 2
v -5 13 2
v -5 14 2
v -5 15 2
v -5 19 2
v -5 20 2
v -5 21 2
v -4 3 2
v -4 4 2
v -4 7 2
v -4 8 2
v -4 9 2
v -4 10 2
v -4 12 2
v -4 13 2
v -4 14 2
v -4 15 2
v -3 3 2
v -3 4 2
v -3 5 2
v -3 8 2
v -3 9 2
v -3 10 2
v -3 12 2
v -3 13 2
v -3 14 2
v -2 3 2
v -2 4 2
v -2 5 2
v -2 6 2
v -2 9 2
v -2 10 2
v -2 12 2
v -2 13 2
v -2 14 2
v -2 15 2
v -1 3 2
v -1 4 2
v -1 5 2
v -1 6 2
v -1 7 2
v -1 10 2
v -1 12 2
v -1 13 2
v -1 14 2
v -1 15 2
v 0 3 2
v 0 4 2
v 0 5 2
v 0 6 2
v 0 7 2
v 0 8 2
v 0 9 2
v 0 10 2
v 0 12 2
v 0 13 2
v 0 14 2
v 0 15 2
v 1 3 2
v 1 4 2
v 1 5 2
v 1 6 2
v 1 7 2
v 1 8 2
v 1 9 2
v 1 10 2
v 1 12 2
v 1 13 2
v 1 14 2
v 1 15 2
v 2 3 2
v 2 4 2
v 2 5 2
v 2 6 2
v 2 7 2
v 2 9 2
v 2 10 2
v 2 12 2
v 2 13 2
v 2 14 2
v 2 15 2
v 3 3 2
v 3 4 2
v 3 5 2
v 3 6 2
v 3 8 2
v 3 9 2
v 3 10 2
v 3 12 2
v 3 13 2
v 3 14 2
v 3 15 2
v 4 4 2
v 4 5 2
v 4 7 2
v 4 8 2
v 4 9 2
v 4 10 2
v 4 12 2
v 4 13 2
v 4 14 2
v 4 15 2
v 5 1 2
v 5 2 2
v 5 3 2
v 5 7 2
v 5 8 2
v 5 9 2
v 5 13 2
v 5 14 2
v 5 15 2
v 5 19 2
v 5 20 2
v 5 21 2
v 6 3 2
v 6 8 2
v 6 14 2
v 6 19 2
v 7 0 2
v 7 3 2
v 7 19 2
v 7 22 2
v -7 0 1
v -7 3 1
v -7 19 1
v -7 22 1
v -6 3 1
v -6 8 1
v -6 14 1
v -6 19 1
v -5 1 1
v -5 2 1
v -5 3 1
v -5 7 1
v -5 8 1
v -5 9 1
v -5 13 1
v -5 14 1
v -5 15 1
v -5 19 1
v -5 20 1
v -5 21 1
v -4 3 1
v -4 4 1
v -4 7 1
v -4 8 1
v -4 9 1
v -4 10 1
v -4 12 1
v -4 13 1
v -4 14 1
v -4 15 1
v -3 3 1
v -3 4 1
v -3 5 1
v -3 8 1
v -3 9 1
v -3 10 1
v -3 12 1
v -3 13 1
v -3 14 1
v -2 3 1
v -2 4 1
v -2 5 1
v -2 6 1
v -2 9 1
v -2 10 1
v -2 12 1
v -2 13 1
v -2 14 1
v -2 15 1
v -1 3 1
v -1 4 1
v -1 5 1
v -1 6 1
v -1 7 1
v -1 10 1
v -1 12 1
v -1 13 1
v -1 14 1
v -1 15 1
v 0 3 1
v 0 4 1
v 0 5 1
v 0 6 1
v 0 7 1
v 0 8 1
v 0 9 1
v 0 10 1
v 0 12 1
v 0 13 1
v 0 14 1
v 0 15 1
v 1 3 1
v 1 4 1
v 1 5 1
v 1 6 1
v 1 7 1
v 1 8 1
v 1 9 1
v 1 10 1
v 1 12 1
v 1 13 1
v 1 14 1
v 1 15 1
v 2 3 1
v 2 4 1
v 2 5 1
v 2 6 1
v 2 7 1
v 2 9 1
v 2 10 1
v 2 12 1
v 2 13 1
v 2 14 1
v 2 15 1
v 3 3 1
v 3 4 1
v 3 5 1
v 3 6 1
v 3 8 1
v 3 9 1
v 3 10 1
v 3 12 1
v 3 13 1
v 3 14 1
v 3 15 1
v 4 4 1
v 4 5 1
v 4 7 1
v 4 8 1
v 4 9 1
v 4 10 1
v 4 12 1
v 4 13 1
v 4 14 1
v 4 15 1
v 5 1 1
v 5 2 1
v 5 3 1
v 5 7 1
v 5 8 1
v 5 9 1
v 5 13 1
v 5 14 1
v 5 15 1
v 5 19 1
v 5 20 1
v 5 21 1
v 6 3 1
v 6 8 1
v 6 14 1
v 6 19 1
v 7 0 1
v 7 3 1
v 7 19 1
v 7 22 1
v -7 0 2
v 7 0 2
v -7 0 1
v 7 0 1
v -4 12 2
v -3 12 2
v 3 12 2
v 4 12 2
v -4 12 1
v -3 12 1
v 3 12 1
v 4 12 1
v -5 13 2
v -4 13 2
v 4 13 2
v 5 13 2
v -5 13 1
v -4 13 1
v 4 13 1
v 5 13 1
v -6 14 2
v -5 14 2
v 5 14 2
v 6 14 2
v -6 14 1
v -5 14 1
v 5 14 1
v 6 14 1
v -7 19 2
v -6 19 2
v 6 19 2
v 7 19 2
v -7 19 1
v -6 19 1
v 6 19 1
v 7 19 1
v -7 3 2
v -6 3 2
v 6 3 2
v 7 3 2
v -7 3 1
v -6 3 1
v 6 3 1
v 7 3 1
v -6 8 2
v -5 8 2
v 5 8 2
v 6 8 2
v -6 8 1
v -5 8 1
v 5 8 1
v 6 8 1
v -5 9 2
v -4 9 2
v 4 9 2
v 5 9 2
v -5 9 1
v -4 9 1
v 4 9 1
v 5 9 1
v -4 10 2
v -3 10 2
v 3 10 2
v 4 10 2
v -4 10 1
v -3 10 1
v 3 10 1
v 4 10 1
v -7 22 2
v 7 22 2
v -7 22 1
v 7 22 1

# faces
f 3/2/1 2/2/1 1/2/1
f 4/2/1 2/2/1 3/2/1
f 7/2/1 6/2/1 5/2/1
f 8/2/1 6/2/1 7/2/1
f 11/2/1 10/2/1 9/2/1
f 12/2/1 10/2/1 11/2/1
f 15/2/1 14/2/1 13/2/1
f 16/2/1 14/2/1 15/2/1
f 19/2/1 18/2/1 17/2/1
f 20/2/1 18/2/1 19/2/1
f 23/2/1 22/2/1 21/2/1
f 24/2/1 22/2/1 23/2/1
f 27/2/1 26/2/1 25/2/1
f 28/2/1 26/2/1 27/2/1
f 31/2/1 30/2/1 29/2/1
f 32/2/1 30/2/1 31/2/1
f 35/2/1 34/2/1 33/2/1
f 36/2/1 34/2/1 35/2/1
f 37/2/2 38/2/2 39/2/2
f 39/2/2 38/2/2 40/2/2
f 41/2/2 42/2/2 43/2/2
f 43/2/2 42/2/2 44/2/2
f 45/2/2 46/2/2 47/2/2
f 47/2/2 46/2/2 48/2/2
f 49/2/2 50/2/2 51/2/2
f 51/2/2 50/2/2 52/2/2
f 53/2/2 54/2/2 55/2/2
f 55/2/2 54/2/2 56/2/2
f 57/2/2 58/2/2 59/2/2
f 59/2/2 58/2/2 60/2/2
f 61/2/2 62/2/2 63/2/2
f 63/2/2 62/2/2 64/2/2
f 65/2/2 66/2/2 67/2/2
f 67/2/2 66/2/2 68/2/2
f 69/2/2 70/2/2 71/2/2
f 71/2/2 70/2/2 72/2/2
f 77/2/3 74/2/3 73/2/3
f 80/2/3 76/2/3 75/2/3
f 81/2/3 78/2/3 77/2/3
f 81/2/3 77/2/3 73/2/3
f 82/2/3 78/2/3 81/2/3
f 83/2/3 78/2/3 82/2/3
f 84/2/3 78/2/3 83/2/3
f 85/2/3 78/2/3 84/2/3
f 88/2/3 80/2/3 79/2/3
f 89/2/3 80/2/3 88/2/3
f 90/2/3 76/2/3 80/2/3
f 90/2/3 80/2/3 89/2/3
f 91/2/3 76/2/3 90/2/3
f 92/2/3 76/2/3 91/2/3
f 93/2/3 83/2/3 82/2/3
f 93/1/3 84/1/3 83/1/3
f 94/1/3 84/1/3 93/1/3
f 95/2/3 86/2/3 85/2/3
f 95/1/3 84/1/3 94/1/3
f 95/2/3 85/2/3 84/2/3
f 96/2/3 86/2/3 95/2/3
f 97/2/3 86/2/3 96/2/3
f 100/2/3 89/2/3 88/2/3
f 100/2/3 88/2/3 87/2/3
f 101/2/3 89/2/3 100/2/3
f 102/1/3 90/1/3 89/1/3
f 102/2/3 89/2/3 101/2/3
f 103/2/3 94/2/3 93/2/3
f 103/2/3 93/2/3 82/2/3
f 104/1/3 95/1/3 94/1/3
f 104/2/3 94/2/3 103/2/3
f 104/1/3 96/1/3 95/1/3
f 105/1/3 96/1/3 104/1/3
f 106/2/3 98/2/3 97/2/3
f 106/1/3 96/1/3 105/1/3
f 106/2/3 97/2/3 96/2/3
f 107/2/3 98/2/3 106/2/3
f 108/2/3 98/2/3 107/2/3
f 109/2/3 101/2/3 100/2/3
f 109/2/3 100/2/3 99/2/3
f 110/2/3 101/2/3 109/2/3
f 111/1/3 102/1/3 101/1/3
f 111/2/3 101/2/3 110/2/3
f 112/1/3 104/1/3 103/1/3
f 112/2/3 103/2/3 82/2/3
f 113/2/3 105/2/3 104/2/3
f 113/1/3 104/1/3 112/1/3
f 114/1/3 107/1/3 106/1/3
f 114/2/3 105/2/3 113/2/3
f 114/1/3 106/1/3 105/1/3
f 115/1/3 107/1/3 114/1/3
f 116/2/3 110/2/3 109/2/3
f 116/1/3 107/1/3 115/1/3
f 116/2/3 108/2/3 107/2/3
f 116/2/3 109/2/3 108/2/3
f 117/2/3 110/2/3 116/2/3
f 118/2/3 110/2/3 117/2/3
f 119/1/3 111/1/3 110/1/3
f 119/2/3 110/2/3 118/2/3
f 120/1/3 102/1/3 111/1/3
f 120/1/3 111/1/3 119/1/3
f 121/1/3 90/1/3 102/1/3
f 121/1/3 102/1/3 120/1/3
f 122/2/3 112/2/3 82/2/3
f 122/2/3 113/2/3 112/2/3
f 123/1/3 114/1/3 113/1/3
f 123/2/3 113/2/3 122/2/3
f 124/2/3 115/2/3 114/2/3
f 124/1/3 114/1/3 123/1/3
f 125/1/3 116/1/3 115/1/3
f 125/2/3 115/2/3 124/2/3
f 125/1/3 117/1/3 116/1/3
f 126/1/3 117/1/3 125/1/3
f 127/2/3 118/2/3 117/2/3
f 127/1/3 117/1/3 126/1/3
f 128/1/3 120/1/3 119/1/3
f 128/2/3 118/2/3 127/2/3
f 128/1/3 119/1/3 118/1/3
f 129/1/3 120/1/3 128/1/3
f 130/2/3 121/2/3 120/2/3
f 130/1/3 120/1/3 129/1/3
f 131/1/3 90/1/3 121/1/3
f 131/2/3 121/2/3 130/2/3
f 132/1/3 123/1/3 122/1/3
f 132/2/3 122/2/3 82/2/3
f 133/2/3 124/2/3 123/2/3
f 133/1/3 123/1/3 132/1/3
f 134/1/3 125/1/3 124/1/3
f 134/2/3 124/2/3 133/2/3
f 135/2/3 126/2/3 125/2/3
f 135/1/3 125/1/3 134/1/3
f 136/1/3 127/1/3 126/1/3
f 136/2/3 126/2/3 135/2/3
f 136/1/3 129/1/3 128/1/3
f 136/1/3 128/1/3 127/1/3
f 137/1/3 129/1/3 136/1/3
f 138/1/3 129/1/3 137/1/3
f 139/1/3 129/1/3 138/1/3
f 140/1/3 129/1/3 139/1/3
f 141/2/3 130/2/3 129/2/3
f 141/1/3 129/1/3 140/1/3
f 142/1/3 131/1/3 130/1/3
f 142/2/3 130/2/3 141/2/3
f 143/1/3 90/1/3 131/1/3
f 143/1/3 131/1/3 142/1/3
f 144/2/3 133/2/3 132/2/3
f 144/2/3 132/2/3 82/2/3
f 145/1/3 134/1/3 133/1/3
f 145/2/3 133/2/3 144/2/3
f 146/2/3 135/2/3 134/2/3
f 146/1/3 134/1/3 145/1/3
f 147/1/3 136/1/3 135/1/3
f 147/2/3 135/2/3 146/2/3
f 148/2/3 137/2/3 136/2/3
f 148/1/3 136/1/3 147/1/3
f 149/1/3 138/1/3 137/1/3
f 149/2/3 137/2/3 148/2/3
f 150/2/3 139/2/3 138/2/3
f 150/1/3 138/1/3 149/1/3
f 151/1/3 140/1/3 139/1/3
f 151/2/3 139/2/3 150/2/3
f 152/2/3 141/2/3 140/2/3
f 152/1/3 140/1/3 151/1/3
f 153/1/3 142/1/3 141/1/3
f 153/2/3 141/2/3 152/2/3
f 154/2/3 143/2/3 142/2/3
f 154/1/3 142/1/3 153/1/3
f 155/1/3 90/1/3 143/1/3
f 155/2/3 143/2/3 154/2/3
f 156/1/3 145/1/3 144/1/3
f 156/2/3 144/2/3 82/2/3
f 157/2/3 146/2/3 145/2/3
f 157/1/3 145/1/3 156/1/3
f 158/1/3 147/1/3 146/1/3
f 158/2/3 146/2/3 157/2/3
f 159/2/3 148/2/3 147/2/3
f 159/1/3 147/1/3 158/1/3
f 160/1/3 150/1/3 149/1/3
f 160/2/3 148/2/3 159/2/3
f 160/1/3 151/1/3 150/1/3
f 160/1/3 149/1/3 148/1/3
f 161/1/3 151/1/3 160/1/3
f 162/2/3 152/2/3 151/2/3
f 162/1/3 151/1/3 161/1/3
f 163/1/3 153/1/3 152/1/3
f 163/2/3 152/2/3 162/2/3
f 164/2/3 154/2/3 153/2/3
f 164/1/3 153/1/3 163/1/3
f 165/1/3 155/1/3 154/1/3
f 165/2/3 154/2/3 164/2/3
f 166/1/3 90/1/3 155/1/3
f 166/1/3 155/1/3 165/1/3
f 167/2/3 156/2/3 82/2/3
f 167/2/3 157/2/3 156/2/3
f 168/1/3 158/1/3 157/1/3
f 168/2/3 157/2/3 167/2/3
f 169/2/3 159/2/3 158/2/3
f 169/1/3 158/1/3 168/1/3
f 170/1/3 161/1/3 160/1/3
f 170/2/3 159/2/3 169/2/3
f 170/1/3 160/1/3 159/1/3
f 171/1/3 161/1/3 170/1/3
f 172/2/3 163/2/3 162/2/3
f 172/1/3 161/1/3 171/1/3
f 172/2/3 164/2/3 163/2/3
f 172/2/3 162/2/3 161/2/3
f 173/2/3 164/2/3 172/2/3
f 174/2/3 164/2/3 173/2/3
f 175/1/3 165/1/3 164/1/3
f 175/2/3 164/2/3 174/2/3
f 176/2/3 166/2/3 165/2/3
f 176/1/3 165/1/3 175/1/3
f 177/1/3 90/1/3 166/1/3
f 177/2/3 166/2/3 176/2/3
f 178/1/3 168/1/3 167/1/3
f 178/2/3 169/2/3 168/2/3
f 179/1/3 171/1/3 170/1/3
f 179/2/3 169/2/3 178/2/3
f 179/1/3 170/1/3 169/1/3
f 180/1/3 171/1/3 179/1/3
f 181/2/3 173/2/3 172/2/3
f 181/1/3 171/1/3 180/1/3
f 181/2/3 172/2/3 171/2/3
f 182/2/3 173/2/3 181/2/3
f 183/2/3 173/2/3 182/2/3
f 184/2/3 175/2/3 174/2/3
f 184/2/3 176/2/3 175/2/3
f 185/2/3 176/2/3 184/2/3
f 186/1/3 177/1/3 176/1/3
f 186/2/3 176/2/3 185/2/3
f 187/1/3 90/1/3 177/1/3
f 187/1/3 177/1/3 186/1/3
f 188/2/3 81/2/3 73/2/3
f 188/1/3 82/1/3 81/1/3
f 189/2/3 167/2/3 82/2/3
f 189/1/3 82/1/3 188/1/3
f 190/1/3 180/1/3 179/1/3
f 190/2/3 167/2/3 189/2/3
f 190/1/3 178/1/3 167/1/3
f 190/1/3 179/1/3 178/1/3
f 191/2/3 182/2/3 181/2/3
f 191/1/3 180/1/3 190/1/3
f 191/2/3 181/2/3 180/2/3
f 192/2/3 182/2/3 191/2/3
f 193/2/3 182/2/3 192/2/3
f 194/2/3 186/2/3 185/2/3
f 194/2/3 187/2/3 186/2/3
f 195/2/3 187/2/3 194/2/3
f 196/1/3 90/1/3 187/1/3
f 196/2/3 187/2/3 195/2/3
f 197/2/3 91/2/3 90/2/3
f 197/1/3 90/1/3 196/1/3
f 198/1/3 92/1/3 91/1/3
f 198/2/3 91/2/3 197/2/3
f 199/2/3 76/2/3 92/2/3
f 199/1/3 92/1/3 198/1/3
f 200/2/3 192/2/3 191/2/3
f 200/2/3 189/2/3 188/2/3
f 200/2/3 191/2/3 190/2/3
f 200/2/3 190/2/3 189/2/3
f 201/2/3 192/2/3 200/2/3
f 202/2/3 199/2/3 198/2/3
f 202/2/3 198/2/3 197/2/3
f 202/2/3 197/2/3 196/2/3
f 202/2/3 196/2/3 195/2/3
f 203/2/3 199/2/3 202/2/3
f 204/2/3 200/2/3 188/2/3
f 204/2/3 188/2/3 73/2/3
f 205/2/3 200/2/3 204/2/3
f 206/2/3 199/2/3 203/2/3
f 207/2/3 76/2/3 199/2/3
f 207/2/3 199/2/3 206/2/3
f 208/2/4 209/2/4 212/2/4
f 210/2/4 211/2/4 215/2/4
f 212/2/4 213/2/4 216/2/4
f 208/2/4 212/2/4 216/2/4
f 216/2/4 213/2/4 217/2/4
f 217/2/4 213/2/4 218/2/4
f 218/2/4 213/2/4 219/2/4
f 219/2/4 213/2/4 220/2/4
f 214/2/4 215/2/4 223/2/4
f 223/2/4 215/2/4 224/2/4
f 215/2/4 211/2/4 225/2/4
f 224/2/4 215/2/4 225/2/4
f 225/2/4 211/2/4 226/2/4
f 226/2/4 211/2/4 227/2/4
f 217/2/4 218/2/4 228/2/4
f 218/1/4 219/1/4 228/1/4
f 228/1/4 219/1/4 229/1/4
f 220/2/4 221/2/4 230/2/4
f 229/1/4 219/1/4 230/1/4
f 219/2/4 220/2/4 230/2/4
f 230/2/4 221/2/4 231/2/4
f 231/2/4 221/2/4 232/2/4
f 223/2/4 224/2/4 235/2/4
f 222/2/4 223/2/4 235/2/4
f 235/2/4 224/2/4 236/2/4
f 224/1/4 225/1/4 237/1/4
f 236/2/4 224/2/4 237/2/4
f 228/2/4 229/2/4 238/2/4
f 217/2/4 228/2/4 238/2/4
f 229/1/4 230/1/4 239/1/4
f 238/2/4 229/2/4 239/2/4
f 230/1/4 231/1/4 239/1/4
f 239/1/4 231/1/4 240/1/4
f 232/2/4 233/2/4 241/2/4
f 240/1/4 231/1/4 241/1/4
f 231/2/4 232/2/4 241/2/4
f 241/2/4 233/2/4 242/2/4
f 242/2/4 233/2/4 243/2/4
f 235/2/4 236/2/4 244/2/4
f 234/2/4 235/2/4 244/2/4
f 244/2/4 236/2/4 245/2/4
f 236/1/4 237/1/4 246/1/4
f 245/2/4 236/2/4 246/2/4
f 238/1/4 239/1/4 247/1/4
f 217/2/4 238/2/4 247/2/4
f 239/2/4 240/2/4 248/2/4
f 247/1/4 239/1/4 248/1/4
f 241/1/4 242/1/4 249/1/4
f 248/2/4 240/2/4 249/2/4
f 240/1/4 241/1/4 249/1/4
f 249/1/4 242/1/4 250/1/4
f 244/2/4 245/2/4 251/2/4
f 250/1/4 242/1/4 251/1/4
f 242/2/4 243/2/4 251/2/4
f 243/2/4 244/2/4 251/2/4
f 251/2/4 245/2/4 252/2/4
f 252/2/4 245/2/4 253/2/4
f 245/1/4 246/1/4 254/1/4
f 253/2/4 245/2/4 254/2/4
f 246/1/4 237/1/4 255/1/4
f 254/1/4 246/1/4 255/1/4
f 237/1/4 225/1/4 256/1/4
f 255/1/4 237/1/4 256/1/4
f 217/2/4 247/2/4 257/2/4
f 247/2/4 248/2/4 257/2/4
f 248/1/4 249/1/4 258/1/4
f 257/2/4 248/2/4 258/2/4
f 249/2/4 250/2/4 259/2/4
f 258/1/4 249/1/4 259/1/4
f 250/1/4 251/1/4 260/1/4
f 259/2/4 250/2/4 260/2/4
f 251/1/4 252/1/4 260/1/4
f 260/1/4 252/1/4 261/1/4
f 252/2/4 253/2/4 262/2/4
f 261/1/4 252/1/4 262/1/4
f 254/1/4 255/1/4 263/1/4
f 262/2/4 253/2/4 263/2/4
f 253/1/4 254/1/4 263/1/4
f 263/1/4 255/1/4 264/1/4
f 255/2/4 256/2/4 265/2/4
f 264/1/4 255/1/4 265/1/4
f 256/1/4 225/1/4 266/1/4
f 265/2/4 256/2/4 266/2/4
f 257/1/4 258/1/4 267/1/4
f 217/2/4 257/2/4 267/2/4
f 258/2/4 259/2/4 268/2/4
f 267/1/4 258/1/4 268/1/4
f 259/1/4 260/1/4 269/1/4
f 268/2/4 259/2/4 269/2/4
f 260/2/4 261/2/4 270/2/4
f 269/1/4 260/1/4 270/1/4
f 261/1/4 262/1/4 271/1/4
f 270/2/4 261/2/4 271/2/4
f 263/1/4 264/1/4 271/1/4
f 262/1/4 263/1/4 271/1/4
f 271/1/4 264/1/4 272/1/4
f 272/1/4 264/1/4 273/1/4
f 273/1/4 264/1/4 274/1/4
f 274/1/4 264/1/4 275/1/4
f 264/2/4 265/2/4 276/2/4
f 275/1/4 264/1/4 276/1/4
f 265/1/4 266/1/4 277/1/4
f 276/2/4 265/2/4 277/2/4
f 266/1/4 225/1/4 278/1/4
f 277/1/4 266/1/4 278/1/4
f 267/2/4 268/2/4 279/2/4
f 217/2/4 267/2/4 279/2/4
f 268/1/4 269/1/4 280/1/4
f 279/2/4 268/2/4 280/2/4
f 269/2/4 270/2/4 281/2/4
f 280/1/4 269/1/4 281/1/4
f 270/1/4 271/1/4 282/1/4
f 281/2/4 270/2/4 282/2/4
f 271/2/4 272/2/4 283/2/4
f 282/1/4 271/1/4 283/1/4
f 272/1/4 273/1/4 284/1/4
f 283/2/4 272/2/4 284/2/4
f 273/2/4 274/2/4 285/2/4
f 284/1/4 273/1/4 285/1/4
f 274/1/4 275/1/4 286/1/4
f 285/2/4 274/2/4 286/2/4
f 275/2/4 276/2/4 287/2/4
f 286/1/4 275/1/4 287/1/4
f 276/1/4 277/1/4 288/1/4
f 287/2/4 276/2/4 288/2/4
f 277/2/4 278/2/4 289/2/4
f 288/1/4 277/1/4 289/1/4
f 278/1/4 225/1/4 290/1/4
f 289/2/4 278/2/4 290/2/4
f 279/1/4 280/1/4 291/1/4
f 217/2/4 279/2/4 291/2/4
f 280/2/4 281/2/4 292/2/4
f 291/1/4 280/1/4 292/1/4
f 281/1/4 282/1/4 293/1/4
f 292/2/4 281/2/4 293/2/4
f 282/2/4 283/2/4 294/2/4
f 293/1/4 282/1/4 294/1/4
f 284/1/4 285/1/4 295/1/4
f 294/2/4 283/2/4 295/2/4
f 285/1/4 286/1/4 295/1/4
f 283/1/4 284/1/4 295/1/4
f 295/1/4 286/1/4 296/1/4
f 286/2/4 287/2/4 297/2/4
f 296/1/4 286/1/4 297/1/4
f 287/1/4 288/1/4 298/1/4
f 297/2/4 287/2/4 298/2/4
f 288/2/4 289/2/4 299/2/4
f 298/1/4 288/1/4 299/1/4
f 289/1/4 290/1/4 300/1/4
f 299/2/4 289/2/4 300/2/4
f 290/1/4 225/1/4 301/1/4
f 300/1/4 290/1/4 301/1/4
f 217/2/4 291/2/4 302/2/4
f 291/2/4 292/2/4 302/2/4
f 292/1/4 293/1/4 303/1/4
f 302/2/4 292/2/4 303/2/4
f 293/2/4 294/2/4 304/2/4
f 303/1/4 293/1/4 304/1/4
f 295/1/4 296/1/4 305/1/4
f 304/2/4 294/2/4 305/2/4
f 294/1/4 295/1/4 305/1/4
f 305/1/4 296/1/4 306/1/4
f 297/2/4 298/2/4 307/2/4
f 306/1/4 296/1/4 307/1/4
f 298/2/4 299/2/4 307/2/4
f 296/2/4 297/2/4 307/2/4
f 307/2/4 299/2/4 308/2/4
f 308/2/4 299/2/4 309/2/4
f 299/1/4 300/1/4 310/1/4
f 309/2/4 299/2/4 310/2/4
f 300/2/4 301/2/4 311/2/4
f 310/1/4 300/1/4 311/1/4
f 301/1/4 225/1/4 312/1/4
f 311/2/4 301/2/4 312/2/4
f 302/1/4 303/1/4 313/1/4
f 303/2/4 304/2/4 313/2/4
f 305/1/4 306/1/4 314/1/4
f 313/2/4 304/2/4 314/2/4
f 304/1/4 305/1/4 314/1/4
f 314/1/4 306/1/4 315/1/4
f 307/2/4 308/2/4 316/2/4
f 315/1/4 306/1/4 316/1/4
f 306/2/4 307/2/4 316/2/4
f 316/2/4 308/2/4 317/2/4
f 317/2/4 308/2/4 318/2/4
f 309/2/4 310/2/4 319/2/4
f 310/2/4 311/2/4 319/2/4
f 319/2/4 311/2/4 320/2/4
f 311/1/4 312/1/4 321/1/4
f 320/2/4 311/2/4 321/2/4
f 312/1/4 225/1/4 322/1/4
f 321/1/4 312/1/4 322/1/4
f 208/2/4 216/2/4 323/2/4
f 216/1/4 217/1/4 323/1/4
f 217/2/4 302/2/4 324/2/4
f 323/1/4 217/1/4 324/1/4
f 314/1/4 315/1/4 325/1/4
f 324/2/4 302/2/4 325/2/4
f 302/1/4 313/1/4 325/1/4
f 313/1/4 314/1/4 325/1/4
f 316/2/4 317/2/4 326/2/4
f 325/1/4 315/1/4 326/1/4
f 315/2/4 316/2/4 326/2/4
f 326/2/4 317/2/4 327/2/4
f 327/2/4 317/2/4 328/2/4
f 320/2/4 321/2/4 329/2/4
f 321/2/4 322/2/4 329/2/4
f 329/2/4 322/2/4 330/2/4
f 322/1/4 225/1/4 331/1/4
f 330/2/4 322/2/4 331/2/4
f 225/2/4 226/2/4 332/2/4
f 331/1/4 225/1/4 332/1/4
f 226/1/4 227/1/4 333/1/4
f 332/2/4 226/2/4 333/2/4
f 227/2/4 211/2/4 334/2/4
f 333/1/4 227/1/4 334/1/4
f 326/2/4 327/2/4 335/2/4
f 323/2/4 324/2/4 335/2/4
f 325/2/4 326/2/4 335/2/4
f 324/2/4 325/2/4 335/2/4
f 335/2/4 327/2/4 336/2/4
f 333/2/4 334/2/4 337/2/4
f 332/2/4 333/2/4 337/2/4
f 331/2/4 332/2/4 337/2/4
f 330/2/4 331/2/4 337/2/4
f 337/2/4 334/2/4 338/2/4
f 323/2/4 335/2/4 339/2/4
f 208/2/4 323/2/4 339/2/4
f 339/2/4 335/2/4 340/2/4
f 338/2/4 334/2/4 341/2/4
f 334/2/4 211/2/4 342/2/4
f 341/2/4 334/2/4 342/2/4
f 345/2/5 344/2/5 343/2/5
f 346/2/5 344/2/5 345/2/5
f 351/2/5 348/2/5 347/2/5
f 352/2/5 348/2/5 351/2/5
f 353/2/5 350/2/5 349/2/5
f 354/2/5 350/2/5 353/2/5
f 359/2/5 356/2/5 355/2/5
f 360/2/5 356/2/5 359/2/5
f 361/2/5 358/2/5 357/2/5
f 362/2/5 358/2/5 361/2/5
f 367/2/5 364/2/5 363/2/5
f 368/2/5 364/2/5 367/2/5
f 369/2/5 366/2/5 365/2/5
f 370/2/5 366/2/5 369/2/5
f 375/2/5 372/2/5 371/2/5
f 376/2/5 372/2/5 375/2/5
f 377/2/5 374/2/5 373/2/5
f 378/2/5 374/2/5 377/2/5
f 379/2/6 380/2/6 383/2/6
f 383/2/6 380/2/6 384/2/6
f 381/2/6 382/2/6 385/2/6
f 385/2/6 382/2/6 386/2/6
f 387/2/6 388/2/6 391/2/6
f 391/2/6 388/2/6 392/2/6
f 389/2/6 390/2/6 393/2/6
f 393/2/6 390/2/6 394/2/6
f 395/2/6 396/2/6 399/2/6
f 399/2/6 396/2/6 400/2/6
f 397/2/6 398/2/6 401/2/6
f 401/2/6 398/2/6 402/2/6
f 403/2/6 404/2/6 407/2/6
f 407/2/6 404/2/6 408/2/6
f 405/2/6 406/2/6 409/2/6
f 409/2/6 406/2/6 410/2/6
f 411/2/6 412/2/6 413/2/6
f 413/2/6 412/2/6 414/2/6
